HIERARCHY
ROOT Hips
{
  OFFSET 5.72205e-005 65.662 3.42586
  CHANNELS 6 Xposition Yposition Zposition Zrotation Xrotation Yrotation
  JOINT Chest
  {
    OFFSET 0 8.7983 -4.7612
    CHANNELS 6 Xposition Yposition Zposition Zrotation Xrotation Yrotation
    JOINT Chest2
    {
      OFFSET 0 8.0291 0.4195
      CHANNELS 6 Xposition Yposition Zposition Zrotation Xrotation Yrotation
      JOINT Chest3
      {
        OFFSET 0 9.9351 -2.2114
        CHANNELS 6 Xposition Yposition Zposition Zrotation Xrotation Yrotation
        JOINT Neck
        {
          OFFSET 0 22.3885 -0.4656
          CHANNELS 6 Xposition Yposition Zposition Zrotation Xrotation Yrotation
          JOINT Head
          {
            OFFSET -0.0001 12.643 3.4389
            CHANNELS 6 Xposition Yposition Zposition Zrotation Xrotation Yrotation
            End Site
            {
              OFFSET 0.0001 17.6655 0.5274
            }
          }
        }
        JOINT LeftCollar
        {
          OFFSET 2.2603 21.606 7.4023
          CHANNELS 6 Xposition Yposition Zposition Zrotation Xrotation Yrotation
          JOINT LeftShoulder
          {
            OFFSET 13.5163 -1.1332 -5.0146
            CHANNELS 6 Xposition Yposition Zposition Zrotation Xrotation Yrotation
            JOINT LeftElbow
            {
              OFFSET -0.0995 -28.05 -0.2431
              CHANNELS 6 Xposition Yposition Zposition Zrotation Xrotation Yrotation
              JOINT LeftWrist
              {
                OFFSET 0.0679 -23.3996 -0.1402
                CHANNELS 6 Xposition Yposition Zposition Zrotation Xrotation Yrotation
                JOINT LeftFinger1
                {
                  OFFSET 0.7932 -9.069 2.5189
                  CHANNELS 6 Xposition Yposition Zposition Zrotation Xrotation Yrotation
                  JOINT LeftFinger11
                  {
                    OFFSET -0.8272 -3.3923 0.5977
                    CHANNELS 6 Xposition Yposition Zposition Zrotation Xrotation Yrotation
                    JOINT LeftFinger12
                    {
                      OFFSET -0.5649 -2.3158 0.4082
                      CHANNELS 6 Xposition Yposition Zposition Zrotation Xrotation Yrotation
                      End Site
                      {
                        OFFSET -0.4919 -1.6479 0.2673
                      }
                    }
                  }
                }
                JOINT LeftFinger2
                {
                  OFFSET 0.9159 -9.2044 0.2193
                  CHANNELS 6 Xposition Yposition Zposition Zrotation Xrotation Yrotation
                  JOINT LeftFinger21
                  {
                    OFFSET 0.0117 -4.1944 -0.0248
                    CHANNELS 6 Xposition Yposition Zposition Zrotation Xrotation Yrotation
                    JOINT LeftFinger22
                    {
                      OFFSET 0.0071 -2.3249 -0.0142
                      CHANNELS 6 Xposition Yposition Zposition Zrotation Xrotation Yrotation
                      End Site
                      {
                        OFFSET -0.1475 -2.0882 0.0028
                      }
                    }
                  }
                }
                JOINT LeftFinger3
                {
                  OFFSET 0.6113 -8.7231 -2.0637
                  CHANNELS 6 Xposition Yposition Zposition Zrotation Xrotation Yrotation
                  JOINT LeftFinger31
                  {
                    OFFSET -0.1927 -3.8059 -0.2383
                    CHANNELS 6 Xposition Yposition Zposition Zrotation Xrotation Yrotation
                    JOINT LeftFinger32
                    {
                      OFFSET -0.1091 -2.1688 -0.1362
                      CHANNELS 6 Xposition Yposition Zposition Zrotation Xrotation Yrotation
                      End Site
                      {
                        OFFSET -0.2358 -1.9176 -0.0906
                      }
                    }
                  }
                }
                JOINT LeftFinger4
                {
                  OFFSET -0.6151 -8.0947 -3.5641
                  CHANNELS 6 Xposition Yposition Zposition Zrotation Xrotation Yrotation
                  JOINT LeftFinger41
                  {
                    OFFSET -0.4882 -2.341 -0.6462
                    CHANNELS 6 Xposition Yposition Zposition Zrotation Xrotation Yrotation
                    JOINT LeftFinger42
                    {
                      OFFSET -0.3575 -1.7167 -0.4742
                      CHANNELS 6 Xposition Yposition Zposition Zrotation Xrotation Yrotation
                      End Site
                      {
                        OFFSET -0.4187 -1.5237 -0.3496
                      }
                    }
                  }
                }
                JOINT LeftFinger0
                {
                  OFFSET -1.42 -1.8761 1.4223
                  CHANNELS 6 Xposition Yposition Zposition Zrotation Xrotation Yrotation
                  JOINT LeftFinger01
                  {
                    OFFSET -1.1471 -3.4929 2.6334
                    CHANNELS 6 Xposition Yposition Zposition Zrotation Xrotation Yrotation
                    JOINT LeftFinger02
                    {
                      OFFSET -0.823 -2.3 1.6571
                      CHANNELS 6 Xposition Yposition Zposition Zrotation Xrotation Yrotation
                      End Site
                      {
                        OFFSET -0.5822 -1.6914 1.1582
                      }
                    }
                  }
                }
              }
            }
          }
        }
        JOINT RightCollar
        {
          OFFSET -2.2603 21.606 7.4023
          CHANNELS 6 Xposition Yposition Zposition Zrotation Xrotation Yrotation
          JOINT RightShoulder
          {
            OFFSET -13.5187 -1.1334 -5.0155
            CHANNELS 6 Xposition Yposition Zposition Zrotation Xrotation Yrotation
            JOINT RightElbow
            {
              OFFSET 0.0994 -28.0499 -0.2431
              CHANNELS 6 Xposition Yposition Zposition Zrotation Xrotation Yrotation
              JOINT RightWrist
              {
                OFFSET -0.0679 -23.3996 -0.1402
                CHANNELS 6 Xposition Yposition Zposition Zrotation Xrotation Yrotation
                JOINT RightFinger1
                {
                  OFFSET -0.7932 -9.0691 2.5189
                  CHANNELS 6 Xposition Yposition Zposition Zrotation Xrotation Yrotation
                  JOINT RightFinger11
                  {
                    OFFSET 0.8272 -3.3923 0.5977
                    CHANNELS 6 Xposition Yposition Zposition Zrotation Xrotation Yrotation
                    JOINT RightFinger12
                    {
                      OFFSET 0.565 -2.3158 0.4082
                      CHANNELS 6 Xposition Yposition Zposition Zrotation Xrotation Yrotation
                      End Site
                      {
                        OFFSET 0.4919 -1.6479 0.2673
                      }
                    }
                  }
                }
                JOINT RightFinger2
                {
                  OFFSET -0.916 -9.2044 0.2193
                  CHANNELS 6 Xposition Yposition Zposition Zrotation Xrotation Yrotation
                  JOINT RightFinger21
                  {
                    OFFSET -0.0117 -4.1944 -0.0248
                    CHANNELS 6 Xposition Yposition Zposition Zrotation Xrotation Yrotation
                    JOINT RightFinger22
                    {
                      OFFSET -0.0071 -2.3249 -0.0142
                      CHANNELS 6 Xposition Yposition Zposition Zrotation Xrotation Yrotation
                      End Site
                      {
                        OFFSET 0.1475 -2.0882 0.0028
                      }
                    }
                  }
                }
                JOINT RightFinger3
                {
                  OFFSET -0.6113 -8.7231 -2.0637
                  CHANNELS 6 Xposition Yposition Zposition Zrotation Xrotation Yrotation
                  JOINT RightFinger31
                  {
                    OFFSET 0.1927 -3.8059 -0.2383
                    CHANNELS 6 Xposition Yposition Zposition Zrotation Xrotation Yrotation
                    JOINT RightFinger32
                    {
                      OFFSET 0.1091 -2.1688 -0.1362
                      CHANNELS 6 Xposition Yposition Zposition Zrotation Xrotation Yrotation
                      End Site
                      {
                        OFFSET 0.2358 -1.9176 -0.0906
                      }
                    }
                  }
                }
                JOINT RightFinger4
                {
                  OFFSET 0.6151 -8.0947 -3.564
                  CHANNELS 6 Xposition Yposition Zposition Zrotation Xrotation Yrotation
                  JOINT RightFinger41
                  {
                    OFFSET 0.4882 -2.341 -0.6462
                    CHANNELS 6 Xposition Yposition Zposition Zrotation Xrotation Yrotation
                    JOINT RightFinger42
                    {
                      OFFSET 0.3574 -1.7166 -0.4742
                      CHANNELS 6 Xposition Yposition Zposition Zrotation Xrotation Yrotation
                      End Site
                      {
                        OFFSET 0.4187 -1.5237 -0.3496
                      }
                    }
                  }
                }
                JOINT RightFinger0
                {
                  OFFSET 1.4199 -1.8761 1.4221
                  CHANNELS 6 Xposition Yposition Zposition Zrotation Xrotation Yrotation
                  JOINT RightFinger01
                  {
                    OFFSET 1.1472 -3.4929 2.6336
                    CHANNELS 6 Xposition Yposition Zposition Zrotation Xrotation Yrotation
                    JOINT RightFinger02
                    {
                      OFFSET 0.8229 -2.3 1.6571
                      CHANNELS 6 Xposition Yposition Zposition Zrotation Xrotation Yrotation
                      End Site
                      {
                        OFFSET 0.5822 -1.6914 1.1582
                      }
                    }
                  }
                }
              }
            }
          }
        }
      }
    }
  }
  JOINT RightHip
  {
    OFFSET -9.412 3.9771 -0.7758
    CHANNELS 6 Xposition Yposition Zposition Zrotation Xrotation Yrotation
    JOINT RightKnee
    {
      OFFSET -0.7531 -40.938 0
      CHANNELS 6 Xposition Yposition Zposition Zrotation Xrotation Yrotation
      JOINT RightAnkle
      {
        OFFSET 0 -40.1986 0
        CHANNELS 6 Xposition Yposition Zposition Zrotation Xrotation Yrotation
        JOINT RightToe
        {
          OFFSET 0 -4.4182 9.239
          CHANNELS 6 Xposition Yposition Zposition Zrotation Xrotation Yrotation
          End Site
          {
            OFFSET 0 0 6.1981
          }
        }
      }
    }
  }
  JOINT LeftHip
  {
    OFFSET 9.4119 3.9773 -0.7758
    CHANNELS 6 Xposition Yposition Zposition Zrotation Xrotation Yrotation
    JOINT LeftKnee
    {
      OFFSET 0.7532 -40.9383 0
      CHANNELS 6 Xposition Yposition Zposition Zrotation Xrotation Yrotation
      JOINT LeftAnkle
      {
        OFFSET 0 -40.1986 0
        CHANNELS 6 Xposition Yposition Zposition Zrotation Xrotation Yrotation
        JOINT LeftToe
        {
          OFFSET 0 -4.4182 9.239
          CHANNELS 6 Xposition Yposition Zposition Zrotation Xrotation Yrotation
          End Site
          {
            OFFSET 0 0 6.1981
          }
        }
      }
    }
  }
}
MOTION
Frames:	4
Frame Time:	0.0333333
5.72205e-005 65.662 3.42586 0 0 -0 0 8.7983 -4.7612 0 0 -0 0 8.0291 0.4195 0 0 -0 0 9.9351 -2.2114 0 0 -0 0 22.3885 -0.4656 0 0 -0 -0.0001 12.643 3.4389 0 0 -0 2.2603 21.606 7.4023 0 0 -12.5014 13.5163 -1.1332 -5.0146 88.1196 14.2451 10.6914 -0.0995 -28.05 -0.2431 -0.00160068 -0.00239207 0.000740045 0.0679 -23.3996 -0.1402 -8.4365e-005 7.00714e-005 -9.52055e-007 0.7932 -9.069 2.5189 9.93923e-017 -1.98785e-016 -1.59028e-015 -0.8272 -3.3923 0.5977 9.93923e-017 -5.96354e-016 -1.59028e-015 -0.5649 -2.3158 0.4082 -9.93923e-017 -5.96354e-016 -1.59028e-015 0.9159 -9.2044 0.2193 9.93923e-017 -1.98785e-016 -1.59028e-015 0.0117 -4.1944 -0.0248 -0.0128176 0.00232552 8.52707e-005 0.0071 -2.3249 -0.0142 9.93923e-017 5.96354e-016 -0 0.6113 -8.7231 -2.0637 9.93923e-017 -1.98785e-016 -1.59028e-015 -0.1927 -3.8059 -0.2383 -0.0160551 0.00299681 0.000857156 -0.1091 -2.1688 -0.1362 -2.48481e-016 0 3.18055e-015 -0.6151 -8.0947 -3.5641 9.93923e-017 -1.98785e-016 -1.59028e-015 -0.4882 -2.341 -0.6462 -0.0125865 0.0031206 0.00282719 -0.3575 -1.7167 -0.4742 0 1.98785e-016 -0 -1.42 -1.8761 1.4223 9.93923e-017 -1.98785e-016 -1.59028e-015 -1.1471 -3.4929 2.6334 9.93923e-017 -5.96354e-016 -1.59028e-015 -0.823 -2.3 1.6571 -9.93923e-017 -5.96354e-016 -1.59028e-015 -2.2603 21.606 7.4023 -0.865644 0.16582 7.03859 -13.5187 -1.1334 -5.0155 -88.0329 10.2057 -10.5567 0.0994 -28.0499 -0.2431 0.0015593 -0.00248883 -0.000788628 -0.0679 -23.3996 -0.1402 7.87605e-005 4.10553e-005 1.24965e-005 -0.7932 -9.0691 2.5189 -3.97569e-016 -7.95139e-016 3.18055e-015 0.8272 -3.3923 0.5977 -1.98785e-016 -3.97569e-016 3.18055e-015 0.565 -2.3158 0.4082 -1.98785e-016 0 3.18055e-015 -0.916 -9.2044 0.2193 -3.97569e-016 -7.95139e-016 3.18055e-015 -0.0117 -4.1944 -0.0248 0.0129473 0.00231697 -8.70038e-005 -0.0071 -2.3249 -0.0142 9.93923e-017 -7.95139e-016 1.59028e-015 -0.6113 -8.7231 -2.0637 -3.97569e-016 -7.95139e-016 3.18055e-015 0.1927 -3.8059 -0.2383 0.0163314 0.00303369 -0.000872333 0.1091 -2.1688 -0.1362 3.97569e-016 7.95139e-016 -3.18055e-015 0.6151 -8.0947 -3.564 -3.97569e-016 -7.95139e-016 3.18055e-015 0.4882 -2.341 -0.6462 0.0145763 0.00367772 -0.00326275 0.3574 -1.7166 -0.4742 9.93923e-017 -3.97569e-016 -0 1.4199 -1.8761 1.4221 -3.97569e-016 -7.95139e-016 3.18055e-015 1.1472 -3.4929 2.6336 -1.98785e-016 -3.97569e-016 3.18055e-015 0.8229 -2.3 1.6571 -1.98785e-016 0 3.18055e-015 -9.412 3.9771 -0.7758 3.42482 1.32465 -0.0626183 -0.7531 -40.938 0 0.000117508 0.717283 0.000978199 0 -40.1986 0 -3.4257 -2.04197 -0.0604716 8.88178e-016 -4.4182 9.239 6.47761e-025 0 -0 9.4119 3.9773 -0.7758 -3.42483 1.34017 0.0627307 0.7532 -40.9383 -2.22045e-016 -0.000193936 0.682302 -0.0013703 -8.88179e-016 -40.1986 0 3.42574 -2.02253 0.0595886 -8.88178e-016 -4.4182 9.239 -8.45714e-024 0 -7.40531e-025 
-1.99751 38.7568 -16.681 1.46392e-008 -6.6708 1.35574e-007 -2.22045e-016 8.7983 -4.7612 0.0348184 10.3875 -0.109952 -4.44089e-016 8.0291 0.4195 0.0926517 20.7749 -0.232338 0 9.9351 -2.2114 0.0926519 20.775 -0.232339 4.44089e-016 22.3885 -0.4656 0.352245 21.4813 -0.173669 -0.0001 12.643 3.4389 3.36616 -5.02091 0.391276 2.2603 21.606 7.4023 8.11058 8.30855 -40.487 13.5163 -1.1332 -5.0146 66.1132 2.86715 53.1681 -0.0995 -28.05 -0.2431 -97.8228 -79.2418 -120.918 0.0679 -23.3996 -0.1402 -0.945016 -13.5617 20.5488 0.7932 -9.069 2.5189 -3.4735e-006 -2.21024e-006 3.24715e-006 -0.8272 -3.3923 0.5977 1.38267e-006 -2.43205e-007 -5.3729e-007 -0.5649 -2.3158 0.4082 7.71477e-006 -1.36179e-006 4.50769e-006 0.9159 -9.2044 0.2193 -3.4735e-006 -2.21024e-006 3.24715e-006 0.0117 -4.1944 -0.0248 -0.0128017 0.00232036 8.83387e-005 0.0071 -2.3249 -0.0142 -3.18055e-015 -9.54166e-015 -3.18055e-015 0.6113 -8.7231 -2.0637 -3.4735e-006 -2.21024e-006 3.24715e-006 -0.1927 -3.8059 -0.2383 -0.0160958 0.00300454 0.000857693 -0.1091 -2.1688 -0.1362 6.33385e-006 -3.40049e-006 5.04521e-006 -0.6151 -8.0947 -3.5641 -3.4735e-006 -2.21024e-006 3.24715e-006 -0.4882 -2.341 -0.6462 -0.0125383 0.00309762 0.00280945 -0.3575 -1.7167 -0.4742 -9.54166e-015 -9.54166e-015 -4.77083e-015 -1.42 -1.8761 1.4223 -3.4735e-006 -2.21024e-006 3.24715e-006 -1.1471 -3.4929 2.6334 1.38267e-006 -2.43205e-007 -5.3729e-007 -0.823 -2.3 1.6571 7.71477e-006 -1.36179e-006 4.50769e-006 -2.2603 21.606 7.4023 -1.45552 10.9679 20.0913 -13.5187 -1.1334 -5.0155 -49.9505 -24.216 -47.538 0.0994 -28.0499 -0.2431 48.7505 -10.309 42.2475 -0.0679 -23.3996 -0.1402 10.9192 18.3554 -5.41621 -0.7932 -9.0691 2.5189 -1.58299e-006 -4.42463e-006 -2.06136e-007 0.8272 -3.3923 0.5977 9.11893e-007 3.05631e-006 1.35398e-006 0.565 -2.3158 0.4082 -1.06076e-006 -2.16455e-006 2.65528e-006 -0.916 -9.2044 0.2193 -1.58299e-006 -4.42463e-006 -2.06136e-007 -0.0117 -4.1944 -0.0248 0.0129702 0.0023172 -7.7071e-005 -0.0071 -2.3249 -0.0142 -3.26227e-006 -5.29461e-006 -6.92345e-006 -0.6113 -8.7231 -2.0637 -1.58299e-006 -4.42463e-006 -2.06136e-007 0.1927 -3.8059 -0.2383 0.0163349 0.00302779 -0.000881713 0.1091 -2.1688 -0.1362 7.66577e-007 -9.79562e-007 5.36307e-006 0.6151 -8.0947 -3.564 -1.58299e-006 -4.42463e-006 -2.06136e-007 0.4882 -2.341 -0.6462 0.0146006 0.00367988 -0.00326349 0.3574 -1.7166 -0.4742 -6.33131e-006 -1.26149e-006 -8.25089e-007 1.4199 -1.8761 1.4221 -1.58299e-006 -4.42463e-006 -2.06136e-007 1.1472 -3.4929 2.6336 9.11893e-007 3.05631e-006 1.35398e-006 0.8229 -2.3 1.6571 -1.06076e-006 -2.16455e-006 2.65528e-006 -9.412 3.9771 -0.7758 -9.35655 0.544057 -6.36281 -0.7531 -40.938 0 -7.8108 79.4565 11.4101 -7.10543e-015 -40.1986 0 -15.1244 32.6077 -1.68169 -3.55271e-015 -4.4182 9.239 -1.4387e-006 1.00121e-005 -2.31194e-007 9.4119 3.9773 -0.7758 8.43926 1.09397 6.28485 0.7532 -40.9383 1.77636e-015 7.14178 79.3213 -10.6631 0 -40.1986 -2.66454e-015 14.5864 32.7207 2.55452 0 -4.4182 9.239 -4.60866e-007 1.10191e-006 9.01469e-007 
-2.89424 26.7414 -25.7606 -3.21681e-008 -9.67266 1.30644e-007 0 8.7983 -4.7612 0.063832 15.0957 -0.178114 -4.44089e-016 8.0291 0.4195 0.188801 30.1912 -0.396306 0 9.9351 -2.2114 0.188799 30.1911 -0.396303 0 22.3885 -0.4656 0.560149 31.1468 -0.273778 -0.0001 12.643 3.4389 4.90505 -7.42069 0.581067 2.2603 21.606 7.4023 14.4103 9.97491 -53.2284 13.5163 -1.1332 -5.0146 57.1132 -2.8152 72.0238 -0.0995 -28.05 -0.2431 -176.93 -47.5516 149.87 0.0679 -23.3996 -0.1402 -1.35677 -19.5118 29.8116 0.7932 -9.069 2.5189 -5.16306e-006 -4.78822e-006 -1.41624e-006 -0.8272 -3.3923 0.5977 7.14787e-006 5.34909e-006 -4.52773e-006 -0.5649 -2.3158 0.4082 3.18055e-015 0 -0 0.9159 -9.2044 0.2193 -5.16306e-006 -4.78822e-006 -1.41624e-006 0.0117 -4.1944 -0.0248 -0.0128188 0.00232189 8.04413e-005 0.0071 -2.3249 -0.0142 1.24546e-005 5.95687e-006 4.09141e-006 0.6113 -8.7231 -2.0637 -5.16306e-006 -4.78822e-006 -1.41624e-006 -0.1927 -3.8059 -0.2383 -0.0160072 0.00298102 0.000855888 -0.1091 -2.1688 -0.1362 8.7616e-007 2.65401e-006 -4.72204e-006 -0.6151 -8.0947 -3.5641 -5.16306e-006 -4.78822e-006 -1.41624e-006 -0.4882 -2.341 -0.6462 -0.0125924 0.0031248 0.00282516 -0.3575 -1.7167 -0.4742 -0 -1.90833e-014 -0 -1.42 -1.8761 1.4223 -5.16306e-006 -4.78822e-006 -1.41624e-006 -1.1471 -3.4929 2.6334 7.14787e-006 5.34909e-006 -4.52773e-006 -0.823001 -2.3 1.6571 3.18055e-015 0 -0 -2.2603 21.606 7.4023 -3.49307 15.0868 25.9754 -13.5187 -1.1334 -5.0155 -34.222 -40.718 -63.8369 0.0994 -28.0499 -0.2431 70.8729 -16.5815 58.9191 -0.0679 -23.3996 -0.1402 15.1654 27.1715 -7.85354 -0.7932 -9.0691 2.5189 -7.15625e-015 -3.18055e-015 -3.18055e-015 0.8272 -3.3923 0.5977 3.18055e-015 -1.59028e-015 -6.36111e-015 0.565 -2.3158 0.4082 1.03368e-014 -1.59028e-015 -0 -0.916001 -9.2044 0.2193 -7.15625e-015 -3.18055e-015 -3.18055e-015 -0.0117 -4.1944 -0.0248 0.0129469 0.00231594 -8.72818e-005 -0.0071 -2.3249 -0.0142 -1.35174e-014 -1.59028e-015 -0 -0.6113 -8.7231 -2.0637 -7.15625e-015 -3.18055e-015 -3.18055e-015 0.1927 -3.8059 -0.2383 0.0163309 0.00303585 -0.000876154 0.1091 -2.1688 -0.1362 -3.97569e-015 4.77083e-015 -0 0.6151 -8.0947 -3.564 -7.15625e-015 -3.18055e-015 -3.18055e-015 0.4882 -2.341 -0.6462 0.0145765 0.0036786 -0.00325877 0.3574 -1.7166 -0.4742 7.95139e-016 0 -3.18055e-015 1.4199 -1.8761 1.4221 -7.15625e-015 -3.18055e-015 -3.18055e-015 1.1472 -3.4929 2.6336 3.18055e-015 -1.59028e-015 -6.36111e-015 0.8229 -2.3 1.6571 1.03368e-014 -1.59028e-015 -0 -9.412 3.9771 -0.7758 -14.8218 -0.014694 -9.42891 -0.7531 -40.938 3.55271e-015 -165.229 65.9672 168.683 -7.10543e-015 -40.1986 3.55271e-015 -18.2343 50.3081 -4.89087 -3.55271e-015 -4.4182 9.239 1.56885e-006 -4.96874e-007 -2.53052e-006 9.4119 3.9773 -0.7758 13.4495 0.819565 9.35946 0.7532 -40.9383 0 165.55 66.2408 -168.952 0 -40.1986 0 16.7586 50.4103 6.64319 5.32907e-015 -4.4182 9.239 -7.95139e-016 3.18055e-015 -1.59028e-015 
-2.69519 29.2459 -23.9468 -6.53588e-008 -9.00558 -6.63271e-008 0 8.7983 -4.7612 0.0563969 14.1245 -0.162265 4.44089e-016 8.0291 0.4195 0.163436 28.249 -0.356525 0 9.9351 -2.2114 0.163435 28.2489 -0.356524 0 22.3885 -0.4656 0.510597 28.999 -0.249427 -0.0001 12.643 3.4389 4.56488 -7.19976 0.563718 2.2603 21.606 7.4023 13.3062 8.79538 -49.9698 13.5163 -1.1332 -5.0146 59.0681 -1.5361 67.8423 -0.0995 -28.05 -0.2431 -171.718 -56.2391 157.218 0.0679 -23.3996 -0.1402 -1.16686 -17.7347 28.3975 0.7932 -9.069 2.5189 3.97925e-006 2.05115e-006 6.03788e-006 -0.8272 -3.3923 0.5977 -3.53113e-031 -6.36111e-015 -3.18055e-015 -0.5649 -2.3158 0.4082 3.18055e-015 -9.54166e-015 -0 0.9159 -9.2044 0.2193 3.97925e-006 2.05115e-006 6.03788e-006 0.0117 -4.1944 -0.0248 -0.0128145 0.00232177 9.03054e-005 0.0071 -2.3249 -0.0142 7.06225e-031 -6.36111e-015 6.36111e-015 0.6113 -8.7231 -2.0637 3.97925e-006 2.05115e-006 6.03788e-006 -0.1927 -3.8059 -0.2383 -0.0160397 0.0029875 0.000855417 -0.1091 -2.1688 -0.1362 -9.54166e-015 0 6.36111e-015 -0.6151 -8.0947 -3.5641 3.97925e-006 2.05115e-006 6.03788e-006 -0.4882 -2.341 -0.6462 -0.0126255 0.0031229 0.0028283 -0.3575 -1.7167 -0.4742 1.64539e-005 5.56753e-006 3.26433e-006 -1.42 -1.8761 1.4223 3.97925e-006 2.05115e-006 6.03788e-006 -1.1471 -3.4929 2.6334 -3.53113e-031 -6.36111e-015 -3.18055e-015 -0.823 -2.3 1.6571 3.18055e-015 -9.54166e-015 -0 -2.2603 21.606 7.4023 -3.29175 13.5528 23.8739 -13.5187 -1.1334 -5.0155 -37.0216 -36.9953 -59.6816 0.0994 -28.0499 -0.2431 67.9696 -15.426 55.7644 -0.0679 -23.3996 -0.1402 13.0944 26.452 -7.63829 -0.7932 -9.0691 2.5189 2.92492e-006 5.10954e-008 -1.77712e-006 0.8272 -3.3923 0.5977 -5.22557e-006 1.52734e-007 -2.48431e-006 0.565 -2.3158 0.4082 -5.84985e-006 4.85784e-007 3.55424e-006 -0.916 -9.2044 0.2193 2.92492e-006 5.10954e-008 -1.77712e-006 -0.0117 -4.1944 -0.0248 0.0129676 0.00231566 -8.603e-005 -0.0071 -2.3249 -0.0142 -4.436e-006 -5.85206e-007 -9.46325e-007 -0.6113 -8.7231 -2.0637 2.92492e-006 5.10954e-008 -1.77712e-006 0.1927 -3.8059 -0.2383 0.0163352 0.00303697 -0.000876811 0.1091 -2.1688 -0.1362 -9.42264e-007 3.16371e-008 3.00022e-006 0.6151 -8.0947 -3.564 2.92492e-006 5.10954e-008 -1.77712e-006 0.4882 -2.341 -0.6462 0.0145774 0.00367961 -0.00326597 0.3574 -1.7166 -0.4742 -9.42257e-007 4.99129e-007 3.00027e-006 1.4199 -1.8761 1.4221 2.92492e-006 5.10954e-008 -1.77712e-006 1.1472 -3.4929 2.6336 -5.22557e-006 1.52734e-007 -2.48431e-006 0.8229 -2.3 1.6571 -5.84985e-006 4.85784e-007 3.55424e-006 -9.412 3.9771 -0.7758 -13.6343 -0.186639 -8.74759 -0.7531 -40.938 -3.55271e-015 -162.715 72.9247 166.289 0 -40.1986 0 -17.7885 46.2033 -3.93531 1.77636e-015 -4.4182 9.239 -6.54847e-008 -1.85628e-007 4.08173e-006 9.4119 3.9773 -0.7758 12.365 0.582158 8.67056 0.7532 -40.9383 3.55272e-015 163.086 73.1801 -166.6 0 -40.1986 0 16.601 46.3182 5.42114 0 -4.4182 9.239 1.50896e-007 -4.11962e-006 -6.63936e-006 
